<?xml version="1.0" encoding="UTF-8" standalone="no"?>
<!-- Created with Inkscape (http://www.inkscape.org/) -->

<svg
   xmlns:dc="http://purl.org/dc/elements/1.1/"
   xmlns:cc="http://creativecommons.org/ns#"
   xmlns:rdf="http://www.w3.org/1999/02/22-rdf-syntax-ns#"
   xmlns:svg="http://www.w3.org/2000/svg"
   xmlns="http://www.w3.org/2000/svg"
   xmlns:xlink="http://www.w3.org/1999/xlink"
   xmlns:sodipodi="http://sodipodi.sourceforge.net/DTD/sodipodi-0.dtd"
   xmlns:inkscape="http://www.inkscape.org/namespaces/inkscape"
   width="32"
   height="32"
   viewBox="0 0 32 32"
   version="1.1"
   id="svg8"
   inkscape:version="0.92.1 r"
   sodipodi:docname="Lux.svg">
  <title
     id="title7895">Antu icon Theme</title>
  <defs
     id="defs2">
    <linearGradient
       inkscape:collect="always"
       xlink:href="#linearGradient4582"
       id="linearGradient1460"
       gradientUnits="userSpaceOnUse"
       gradientTransform="translate(-27,3)"
       x1="16"
       y1="312.64999"
       x2="16"
       y2="285.64999" />
    <linearGradient
       id="linearGradient4582"
       inkscape:collect="always">
      <stop
         id="stop4578"
         offset="0"
         style="stop-color:#fc393d;stop-opacity:1" />
      <stop
         id="stop4580"
         offset="1"
         style="stop-color:#fd5238;stop-opacity:1" />
    </linearGradient>
  </defs>
  <sodipodi:namedview
     id="base"
     pagecolor="#ffffff"
     bordercolor="#666666"
     borderopacity="1.0"
     inkscape:pageopacity="0.0"
     inkscape:pageshadow="2"
     inkscape:zoom="15.839192"
     inkscape:cx="23.599939"
     inkscape:cy="11.580129"
     inkscape:document-units="px"
     inkscape:current-layer="layer1"
     showgrid="true"
     units="px"
     inkscape:window-width="1920"
     inkscape:window-height="1011"
     inkscape:window-x="0"
     inkscape:window-y="0"
     inkscape:window-maximized="1"
     objecttolerance="10"
     gridtolerance="10"
     guidetolerance="10">
    <inkscape:grid
       type="xygrid"
       id="grid7897"
       empspacing="4" />
  </sodipodi:namedview>
  <metadata
     id="metadata5">
    <rdf:RDF>
      <cc:Work
         rdf:about="">
        <dc:format>image/svg+xml</dc:format>
        <dc:type
           rdf:resource="http://purl.org/dc/dcmitype/StillImage" />
        <dc:title>Antu icon Theme</dc:title>
      </cc:Work>
    </rdf:RDF>
  </metadata>
  <g
     inkscape:label="Capa 1"
     inkscape:groupmode="layer"
     id="layer1"
     transform="translate(0,-282.64999)">
    <g
       id="start-here-kde">
      <g
         transform="translate(27,-3)"
         id="g2944">
        <path
           inkscape:connector-curvature="0"
           id="rect903-5"
           d="m -11,286.64999 c 8.31,0 15,6.69 15,15 0,8.31 -6.69,15 -15,15 -8.31,0 -15,-6.69 -15,-15 0,-8.31 6.69,-15 15,-15 z"
           style="opacity:1;fill:#b2262c;fill-opacity:1;stroke:none;stroke-width:1.97685266;stroke-linecap:round;stroke-linejoin:round;stroke-miterlimit:4;stroke-dasharray:none;stroke-opacity:1" />
        <path
           inkscape:connector-curvature="0"
           id="rect903-2-4"
           d="m -11,287.64999 c 7.756,0 14,6.244 14,14 0,7.756 -6.244,14 -14,14 -7.756,0 -14,-6.244 -14,-14 0,-7.756 6.244,-14 14,-14 z"
           style="opacity:1;fill:url(#linearGradient1460);fill-opacity:1;stroke:none;stroke-width:1.84506249;stroke-linecap:round;stroke-linejoin:round;stroke-miterlimit:4;stroke-dasharray:none;stroke-opacity:1" />
        <path
           inkscape:connector-curvature="0"
           id="path5186-2-0-6-6-6-2-6"
           d="m -11.000003,293.64999 2.072661,2.93555 3.487684,-1.21641 -0.140394,3.53321 3.580049,0.96679 -2.301723,2.78086 2.301724,2.78086 -3.58005,0.9668 0.140395,3.53672 -3.487685,-1.21992 -2.072661,2.93554 -2.07266,-2.93554 -3.487684,1.2164 0.140396,-3.5332 -3.580049,-0.9668 2.301721,-2.78086 -2.301723,-2.78086 3.580049,-0.96679 -0.140396,-3.53672 3.487684,1.21992 z"
           style="fill:#cc2c32;fill-opacity:1;stroke:none;stroke-width:0.42006955;stroke-linecap:round;stroke-linejoin:round;stroke-miterlimit:4;stroke-dasharray:none;stroke-opacity:0.99622641;paint-order:markers stroke fill" />
        <path
           inkscape:connector-curvature="0"
           id="path5186-2-0-6-6-6-2-6-8"
           d="m -11.000003,292.64999 2.072661,2.93555 3.487684,-1.21641 -0.140394,3.53321 3.580049,0.96679 -2.301723,2.78086 2.301724,2.78086 -3.58005,0.9668 0.140395,3.53672 -3.487685,-1.21992 -2.072661,2.93554 -2.07266,-2.93554 -3.487684,1.2164 0.140396,-3.5332 -3.580049,-0.9668 2.301721,-2.78086 -2.301723,-2.78086 3.580049,-0.96679 -0.140396,-3.53672 3.487684,1.21992 z"
           style="fill:#ffffff;fill-opacity:1;stroke:none;stroke-width:0.42006955;stroke-linecap:round;stroke-linejoin:round;stroke-miterlimit:4;stroke-dasharray:none;stroke-opacity:0.99622641;paint-order:markers stroke fill" />
      </g>
      <rect
         y="282.64999"
         x="0"
         height="32"
         width="32"
         id="rect4493"
         style="opacity:1;fill:#f77171;fill-opacity:0;stroke:none;stroke-width:180;stroke-linecap:round;stroke-linejoin:round;stroke-miterlimit:4;stroke-dasharray:none;stroke-opacity:1" />
    </g>
  </g>
</svg>
