<?xml version="1.0" encoding="UTF-8" standalone="no"?>
<!-- Created with Inkscape (http://www.inkscape.org/) -->

<svg
   xmlns:dc="http://purl.org/dc/elements/1.1/"
   xmlns:cc="http://creativecommons.org/ns#"
   xmlns:rdf="http://www.w3.org/1999/02/22-rdf-syntax-ns#"
   xmlns:svg="http://www.w3.org/2000/svg"
   xmlns="http://www.w3.org/2000/svg"
   xmlns:xlink="http://www.w3.org/1999/xlink"
   xmlns:sodipodi="http://sodipodi.sourceforge.net/DTD/sodipodi-0.dtd"
   xmlns:inkscape="http://www.inkscape.org/namespaces/inkscape"
   width="48"
   height="48"
   viewBox="0 0 12.7 12.7"
   version="1.1"
   id="svg8"
   inkscape:version="0.92.1 r"
   sodipodi:docname="start-here.svg">
  <defs
     id="defs2">
    <linearGradient
       inkscape:collect="always"
       xlink:href="#linearGradient4834"
       id="linearGradient4836"
       x1="2107.0947"
       y1="-4948.043"
       x2="2107.0947"
       y2="-5127.02"
       gradientUnits="userSpaceOnUse" />
    <linearGradient
       inkscape:collect="always"
       id="linearGradient4834">
      <stop
         style="stop-color:#e0e6ff;stop-opacity:1"
         offset="0"
         id="stop4830" />
      <stop
         style="stop-color:#f6fcff;stop-opacity:1"
         offset="1"
         id="stop4832" />
    </linearGradient>
  </defs>
  <sodipodi:namedview
     id="base"
     pagecolor="#ffffff"
     bordercolor="#666666"
     borderopacity="1.0"
     inkscape:pageopacity="0.0"
     inkscape:pageshadow="2"
     inkscape:zoom="7.9195959"
     inkscape:cx="33.092219"
     inkscape:cy="36.808325"
     inkscape:document-units="px"
     inkscape:current-layer="layer1"
     showgrid="false"
     units="px"
     inkscape:window-width="1920"
     inkscape:window-height="1009"
     inkscape:window-x="0"
     inkscape:window-y="0"
     inkscape:window-maximized="1" />
  <metadata
     id="metadata5">
    <rdf:RDF>
      <cc:Work
         rdf:about="">
        <dc:format>image/svg+xml</dc:format>
        <dc:type
           rdf:resource="http://purl.org/dc/dcmitype/StillImage" />
        <dc:title />
      </cc:Work>
    </rdf:RDF>
  </metadata>
  <g
     inkscape:label="Capa 1"
     inkscape:groupmode="layer"
     id="layer1"
     transform="translate(0,-284.29999)">
    <g
       id="start-here-kde">
      <g
         id="g4953"
         transform="matrix(0.06208889,0,0,0.06208889,-104.24584,613.14911)">
        <g
           transform="translate(-321.58334,-156.62053)"
           id="g6565-8-6-7">
          <g
             transform="matrix(0.79999998,0,0,0.79999998,1185.7042,-868.14359)"
             id="g5320-7-4-0-5" />
          <path
             style="opacity:1;fill:#9da0b2;fill-opacity:1;stroke:none;stroke-width:1.27840912;stroke-miterlimit:4;stroke-dasharray:none;stroke-opacity:1"
             d="m 2102.8333,-5131.2812 h 2e-4 c 51.9374,0 93.7499,41.8124 93.7499,93.7499 0,51.9374 -41.8125,93.7499 -93.7499,93.7499 h -2e-4 c -51.9375,0 -93.7499,-41.8125 -93.7499,-93.7499 0,-51.9375 41.8124,-93.7499 93.7499,-93.7499 z"
             id="rect4544"
             inkscape:connector-curvature="0" />
          <path
             style="opacity:1;fill:url(#linearGradient4836);fill-opacity:1;stroke:none;stroke-width:1.27840912;stroke-miterlimit:4;stroke-dasharray:none;stroke-opacity:1"
             d="m 2102.8333,-5127.02 h 1e-4 c 49.5767,0 89.4886,39.9119 89.4886,89.4886 0,49.5767 -39.9119,89.4886 -89.4886,89.4886 h -1e-4 c -49.5767,0 -89.4886,-39.9119 -89.4886,-89.4886 0,-49.5767 39.9119,-89.4886 89.4886,-89.4886 z"
             id="rect4544-5"
             inkscape:connector-curvature="0" />
        </g>
        <path
           style="opacity:1;fill:#1a6cb2;fill-opacity:1;stroke:none;stroke-width:1.27840912;stroke-miterlimit:4;stroke-dasharray:none;stroke-opacity:1"
           d="m 1747.1591,-5241.0269 c 7.0824,0 12.7841,5.7017 12.7841,12.7841 0,7.0824 -5.7017,12.7841 -12.7841,12.7841 -7.0824,0 -12.7841,-5.7017 -12.7841,-12.7841 0,-7.0824 5.7017,-12.7841 12.7841,-12.7841 z"
           id="rect4666"
           inkscape:connector-curvature="0" />
        <path
           style="opacity:1;fill:#0c3996;fill-opacity:1;stroke:none;stroke-width:1.27840912;stroke-miterlimit:4;stroke-dasharray:none;stroke-opacity:1"
           d="m 1781.25,-5241.0269 c 7.0824,0 12.7841,5.7017 12.7841,12.7841 0,7.0824 -5.7017,12.7841 -12.7841,12.7841 -7.0824,0 -12.7841,-5.7017 -12.7841,-12.7841 0,-7.0824 5.7017,-12.7841 12.7841,-12.7841 z"
           id="rect4668"
           inkscape:connector-curvature="0" />
        <path
           style="opacity:1;fill:#1a6cb2;fill-opacity:1;stroke:none;stroke-width:1.27840912;stroke-miterlimit:4;stroke-dasharray:none;stroke-opacity:1"
           d="m 1815.341,-5241.0269 c 7.0824,0 12.7841,5.7017 12.7841,12.7841 0,7.0824 -5.7017,12.7841 -12.7841,12.7841 -7.0824,0 -12.7841,-5.7017 -12.7841,-12.7841 0,-7.0824 5.7017,-12.7841 12.7841,-12.7841 z"
           id="rect4670"
           inkscape:connector-curvature="0" />
        <path
           style="opacity:1;fill:#0c3996;fill-opacity:1;stroke:none;stroke-width:1.27840912;stroke-miterlimit:4;stroke-dasharray:none;stroke-opacity:1"
           d="m 1747.1591,-5206.936 c 7.0824,0 12.7841,5.7017 12.7841,12.7841 0,7.0823 -5.7017,12.784 -12.7841,12.784 -7.0824,0 -12.7841,-5.7017 -12.7841,-12.784 0,-7.0824 5.7017,-12.7841 12.7841,-12.7841 z"
           id="rect4666-3"
           inkscape:connector-curvature="0" />
        <path
           style="opacity:1;fill:#1a6cb2;fill-opacity:1;stroke:none;stroke-width:1.27840912;stroke-miterlimit:4;stroke-dasharray:none;stroke-opacity:1"
           d="m 1781.25,-5206.936 c 7.0824,0 12.7841,5.7017 12.7841,12.7841 0,7.0823 -5.7017,12.784 -12.7841,12.784 -7.0824,0 -12.7841,-5.7017 -12.7841,-12.784 0,-7.0824 5.7017,-12.7841 12.7841,-12.7841 z"
           id="rect4668-6"
           inkscape:connector-curvature="0" />
        <path
           style="opacity:1;fill:#0c3996;fill-opacity:1;stroke:none;stroke-width:1.27840912;stroke-miterlimit:4;stroke-dasharray:none;stroke-opacity:1"
           d="m 1815.341,-5206.936 c 7.0824,0 12.7841,5.7017 12.7841,12.7841 0,7.0823 -5.7017,12.784 -12.7841,12.784 -7.0824,0 -12.7841,-5.7017 -12.7841,-12.784 0,-7.0824 5.7017,-12.7841 12.7841,-12.7841 z"
           id="rect4670-0"
           inkscape:connector-curvature="0" />
        <path
           style="opacity:1;fill:#1a6cb2;fill-opacity:1;stroke:none;stroke-width:1.27840912;stroke-miterlimit:4;stroke-dasharray:none;stroke-opacity:1"
           d="m 1747.1591,-5172.8452 c 7.0824,0 12.7841,5.7017 12.7841,12.7841 0,7.0824 -5.7017,12.7841 -12.7841,12.7841 -7.0824,0 -12.7841,-5.7017 -12.7841,-12.7841 0,-7.0824 5.7017,-12.7841 12.7841,-12.7841 z"
           id="rect4666-6"
           inkscape:connector-curvature="0" />
        <path
           style="opacity:1;fill:#0c3996;fill-opacity:1;stroke:none;stroke-width:1.27840912;stroke-miterlimit:4;stroke-dasharray:none;stroke-opacity:1"
           d="m 1781.25,-5172.8452 c 7.0824,0 12.7841,5.7017 12.7841,12.7841 0,7.0824 -5.7017,12.7841 -12.7841,12.7841 -7.0824,0 -12.7841,-5.7017 -12.7841,-12.7841 0,-7.0824 5.7017,-12.7841 12.7841,-12.7841 z"
           id="rect4668-2"
           inkscape:connector-curvature="0" />
        <path
           style="opacity:1;fill:#1a6cb2;fill-opacity:1;stroke:none;stroke-width:1.27840912;stroke-miterlimit:4;stroke-dasharray:none;stroke-opacity:1"
           d="m 1815.341,-5172.8452 c 7.0824,0 12.7841,5.7017 12.7841,12.7841 0,7.0824 -5.7017,12.7841 -12.7841,12.7841 -7.0824,0 -12.7841,-5.7017 -12.7841,-12.7841 0,-7.0824 5.7017,-12.7841 12.7841,-12.7841 z"
           id="rect4670-6"
           inkscape:connector-curvature="0" />
        <path
           style="opacity:1;fill:#29a7f5;fill-opacity:1;stroke:none;stroke-width:1.27840912;stroke-miterlimit:4;stroke-dasharray:none;stroke-opacity:1"
           d="m 1747.1591,-5236.7656 c 4.7216,0 8.5227,3.8011 8.5227,8.5227 0,4.7216 -3.8011,8.5227 -8.5227,8.5227 -4.7216,0 -8.5227,-3.8011 -8.5227,-8.5227 0,-4.7216 3.8011,-8.5227 8.5227,-8.5227 z"
           id="rect4723"
           inkscape:connector-curvature="0" />
        <path
           style="opacity:1;fill:#137bee;fill-opacity:1;stroke:none;stroke-width:1.27840912;stroke-miterlimit:4;stroke-dasharray:none;stroke-opacity:1"
           d="m 1781.25,-5236.7656 c 4.7216,0 8.5227,3.8011 8.5227,8.5227 0,4.7216 -3.8011,8.5227 -8.5227,8.5227 -4.7216,0 -8.5227,-3.8011 -8.5227,-8.5227 0,-4.7216 3.8011,-8.5227 8.5227,-8.5227 z"
           id="rect4725"
           inkscape:connector-curvature="0" />
        <path
           style="opacity:1;fill:#29a7f5;fill-opacity:1;stroke:none;stroke-width:1.27840912;stroke-miterlimit:4;stroke-dasharray:none;stroke-opacity:1"
           d="m 1815.341,-5236.7656 c 4.7216,0 8.5227,3.8011 8.5227,8.5227 0,4.7216 -3.8011,8.5227 -8.5227,8.5227 -4.7216,0 -8.5228,-3.8011 -8.5228,-8.5227 0,-4.7216 3.8012,-8.5227 8.5228,-8.5227 z"
           id="rect4727"
           inkscape:connector-curvature="0" />
        <path
           style="opacity:1;fill:#137bee;fill-opacity:1;stroke:none;stroke-width:1.27840912;stroke-miterlimit:4;stroke-dasharray:none;stroke-opacity:1"
           d="m 1747.1592,-5202.6748 c 4.7216,0 8.5227,3.8011 8.5227,8.5227 0,4.7216 -3.8011,8.5227 -8.5227,8.5227 -4.7216,0 -8.5227,-3.8011 -8.5227,-8.5227 0,-4.7216 3.8011,-8.5227 8.5227,-8.5227 z"
           id="rect4723-1"
           inkscape:connector-curvature="0" />
        <path
           style="opacity:1;fill:#29a7f5;fill-opacity:1;stroke:none;stroke-width:1.27840912;stroke-miterlimit:4;stroke-dasharray:none;stroke-opacity:1"
           d="m 1781.2501,-5202.6748 c 4.7216,0 8.5228,3.8011 8.5228,8.5227 0,4.7216 -3.8012,8.5227 -8.5228,8.5227 -4.7215,0 -8.5227,-3.8011 -8.5227,-8.5227 0,-4.7216 3.8012,-8.5227 8.5227,-8.5227 z"
           id="rect4725-8"
           inkscape:connector-curvature="0" />
        <path
           style="opacity:1;fill:#137bee;fill-opacity:1;stroke:none;stroke-width:1.27840912;stroke-miterlimit:4;stroke-dasharray:none;stroke-opacity:1"
           d="m 1815.3411,-5202.6748 c 4.7216,0 8.5227,3.8011 8.5227,8.5227 0,4.7216 -3.8011,8.5227 -8.5227,8.5227 -4.7216,0 -8.5227,-3.8011 -8.5227,-8.5227 0,-4.7216 3.8011,-8.5227 8.5227,-8.5227 z"
           id="rect4727-7"
           inkscape:connector-curvature="0" />
        <path
           style="opacity:1;fill:#29a7f5;fill-opacity:1;stroke:none;stroke-width:1.27840912;stroke-miterlimit:4;stroke-dasharray:none;stroke-opacity:1"
           d="m 1747.1591,-5168.584 c 4.7216,0 8.5227,3.8012 8.5227,8.5227 0,4.7216 -3.8011,8.5228 -8.5227,8.5228 -4.7216,0 -8.5227,-3.8012 -8.5227,-8.5228 0,-4.7215 3.8011,-8.5227 8.5227,-8.5227 z"
           id="rect4723-9"
           inkscape:connector-curvature="0" />
        <path
           style="opacity:1;fill:#137bee;fill-opacity:1;stroke:none;stroke-width:1.27840912;stroke-miterlimit:4;stroke-dasharray:none;stroke-opacity:1"
           d="m 1781.25,-5168.584 c 4.7216,0 8.5227,3.8012 8.5227,8.5227 0,4.7216 -3.8011,8.5228 -8.5227,8.5228 -4.7216,0 -8.5227,-3.8012 -8.5227,-8.5228 0,-4.7215 3.8011,-8.5227 8.5227,-8.5227 z"
           id="rect4725-2"
           inkscape:connector-curvature="0" />
        <path
           style="opacity:1;fill:#29a7f5;fill-opacity:1;stroke:none;stroke-width:1.27840912;stroke-miterlimit:4;stroke-dasharray:none;stroke-opacity:1"
           d="m 1815.341,-5168.584 c 4.7216,0 8.5227,3.8012 8.5227,8.5227 0,4.7216 -3.8011,8.5228 -8.5227,8.5228 -4.7216,0 -8.5228,-3.8012 -8.5228,-8.5228 0,-4.7215 3.8012,-8.5227 8.5228,-8.5227 z"
           id="rect4727-0"
           inkscape:connector-curvature="0" />
      </g>
      <rect
         y="284.29999"
         x="9.5367433e-08"
         height="12.7"
         width="12.7"
         id="rect4510"
         style="fill:#ff00ff;fill-opacity:0;stroke-width:0.26573223" />
    </g>
  </g>
</svg>
