<?xml version="1.0" encoding="UTF-8" standalone="no"?>
<!-- Created with Inkscape (http://www.inkscape.org/) -->

<svg
   xmlns:dc="http://purl.org/dc/elements/1.1/"
   xmlns:cc="http://creativecommons.org/ns#"
   xmlns:rdf="http://www.w3.org/1999/02/22-rdf-syntax-ns#"
   xmlns:svg="http://www.w3.org/2000/svg"
   xmlns="http://www.w3.org/2000/svg"
   xmlns:sodipodi="http://sodipodi.sourceforge.net/DTD/sodipodi-0.dtd"
   xmlns:inkscape="http://www.inkscape.org/namespaces/inkscape"
   width="32"
   height="32"
   id="svg5048"
   version="1.1"
   inkscape:version="0.92.1 r"
   sodipodi:docname="start-noc.svg">
  <defs
     id="defs5050">
    <style
       id="current-color-scheme"
       type="text/css">      .ColorScheme-Text {
        color:#31363b;
      }
      .ColorScheme-Background{
        color:#eff0f1;
      }
      .ColorScheme-ViewText {
        color:#31363b;
      }
      .ColorScheme-ViewBackground{
        color:#fcfcfc;
      }
      .ColorScheme-ViewHover {
        color:#3daee9;
      }
      .ColorScheme-ViewFocus{
        color:#3daee9;
      }
      .ColorScheme-ButtonText {
        color:#31363b;
      }
      .ColorScheme-ButtonBackground{
        color:#eff0f1;
      }
      .ColorScheme-ButtonHover {
        color:#3daee9;
      }
      .ColorScheme-ButtonFocus{
        color:#3daee9;
      }</style>
  </defs>
  <sodipodi:namedview
     id="base"
     pagecolor="#292f34"
     bordercolor="#666666"
     borderopacity="1.0"
     inkscape:pageopacity="1"
     inkscape:pageshadow="2"
     inkscape:zoom="4.0000001"
     inkscape:cx="-58.968959"
     inkscape:cy="8.8499963"
     inkscape:document-units="px"
     inkscape:current-layer="layer1"
     showgrid="true"
     inkscape:window-width="1366"
     inkscape:window-height="697"
     inkscape:window-x="0"
     inkscape:window-y="0"
     inkscape:window-maximized="1"
     fit-margin-top="0"
     fit-margin-left="0"
     fit-margin-right="0"
     fit-margin-bottom="0">
    <inkscape:grid
       type="xygrid"
       id="grid3011"
       empspacing="5"
       visible="true"
       enabled="true"
       snapvisiblegridlinesonly="true"
       originx="54.098483"
       originy="-4.97901"
       spacingx="1"
       spacingy="1" />
  </sodipodi:namedview>
  <metadata
     id="metadata5053">
    <rdf:RDF>
      <cc:Work
         rdf:about="">
        <dc:format>image/svg+xml</dc:format>
        <dc:type
           rdf:resource="http://purl.org/dc/dcmitype/StillImage" />
        <dc:title></dc:title>
      </cc:Work>
    </rdf:RDF>
  </metadata>
  <g
     inkscape:label="Layer 1"
     inkscape:groupmode="layer"
     id="layer1"
     transform="translate(54.098483,-1015.3832)">
    <rect
       style="fill:#8b9299;fill-opacity:0;stroke:none"
       id="rect3024"
       width="20"
       height="60"
       x="864"
       y="543"
       transform="translate(0,52.36218)"
       ry="10" />
    <g
       transform="translate(-76.098483,1015.3832)"
       id="start-here-kde">
      <rect
         style="fill:none;fill-rule:evenodd;stroke:none;stroke-width:1px;stroke-linecap:butt;stroke-linejoin:miter;stroke-opacity:1"
         id="rect3343"
         width="32"
         height="32"
         x="22"
         y="0" />
      <g
         transform="matrix(0.02613333,0,0,0.02613333,10.562623,143.10463)"
         id="g4664">
        <path
           id="path5186"
           transform="matrix(38.265304,0,0,38.265304,-404.18178,-5475.9429)"
           d="M 38,2 A 14,14 0 0 0 24,16 14,14 0 0 0 38,30 14,14 0 0 0 52,16 14,14 0 0 0 38,2 Z M 36.6875,6.0996094 A 8.0000001,8.0000001 0 0 0 35,11 8.0000001,8.0000001 0 0 0 43,19 8.0000001,8.0000001 0 0 0 47.900391,17.318359 10,10 0 0 1 38,26 10,10 0 0 1 28,16 10,10 0 0 1 36.6875,6.0996094 Z"
           style="fill:#ffffff;fill-opacity:0.99215686;stroke:none;stroke-width:0.45529962;stroke-linecap:round;stroke-linejoin:round;stroke-miterlimit:4;stroke-dasharray:none;stroke-opacity:0.99622641;paint-order:markers stroke fill"
           inkscape:connector-curvature="0" />
      </g>
    </g>
  </g>
</svg>
