<?xml version="1.0" encoding="UTF-8" standalone="no"?>
<!-- Created with Inkscape (http://www.inkscape.org/) -->

<svg
   xmlns:dc="http://purl.org/dc/elements/1.1/"
   xmlns:cc="http://creativecommons.org/ns#"
   xmlns:rdf="http://www.w3.org/1999/02/22-rdf-syntax-ns#"
   xmlns:svg="http://www.w3.org/2000/svg"
   xmlns="http://www.w3.org/2000/svg"
   xmlns:sodipodi="http://sodipodi.sourceforge.net/DTD/sodipodi-0.dtd"
   xmlns:inkscape="http://www.inkscape.org/namespaces/inkscape"
   width="22"
   height="22"
   id="svg3869"
   version="1.1"
   inkscape:version="0.92.1 r"
   sodipodi:docname="quota.svg"
   viewBox="0 0 22 22">
  <defs
     id="defs3871">
    <style
       id="current-color-scheme"
       type="text/css">
      .ColorScheme-Text {
        color:#122036;
      }
      </style>
    <style
       id="current-color-scheme-3"
       type="text/css">
      .ColorScheme-Text {
        color:#31363b;
      }
      .ColorScheme-Background {
        color:#eff0f1;
      }
      .ColorScheme-Highlight {
        color:#3daee9;
      }
      .ColorScheme-ViewText {
        color:#31363b;
      }
      .ColorScheme-ViewBackground {
        color:#fcfcfc;
      }
      .ColorScheme-ViewHover {
        color:#93cee9;
      }
      .ColorScheme-ViewFocus{
        color:#3daee9;
      }
      .ColorScheme-ButtonText {
        color:#31363b;
      }
      .ColorScheme-ButtonBackground {
        color:#eff0f1;
      }
      .ColorScheme-ButtonHover {
        color:#93cee9;
      }
      .ColorScheme-ButtonFocus{
        color:#3daee9;
      }
      </style>
    <style
       type="text/css"
       id="current-color-scheme-6">
      .ColorScheme-Text {
        color:#31363b;
      }
      .ColorScheme-Background {
        color:#eff0f1;
      }
      .ColorScheme-Highlight {
        color:#3daee9;
      }
      .ColorScheme-ViewText {
        color:#31363b;
      }
      .ColorScheme-ViewBackground {
        color:#fcfcfc;
      }
      .ColorScheme-ViewHover {
        color:#93cee9;
      }
      .ColorScheme-ViewFocus{
        color:#3daee9;
      }
      .ColorScheme-ButtonText {
        color:#31363b;
      }
      .ColorScheme-ButtonBackground {
        color:#eff0f1;
      }
      .ColorScheme-ButtonHover {
        color:#93cee9;
      }
      .ColorScheme-ButtonFocus{
        color:#3daee9;
      }
      </style>
    <style
       type="text/css"
       id="current-color-scheme-5">
      .ColorScheme-Text {
        color:#7B7C7E;
      }
      .ColorScheme-Background{
        color:#EFF0F1;
      }
      .ColorScheme-Highlight{
        color:#3DAEE6;
      }
      .ColorScheme-ViewText {
        color:#7B7C7E;
      }
      .ColorScheme-ViewBackground{
        color:#FCFCFC;
      }
      .ColorScheme-ViewHover {
        color:#3DAEE6;
      }
      .ColorScheme-ViewFocus{
        color:#1E92FF;
      }
      .ColorScheme-ButtonText {
        color:#7B7C7E;
      }
      .ColorScheme-ButtonBackground{
        color:#EFF0F1;
      }
      .ColorScheme-ButtonHover {
        color:#3DAEE6;
      }
      .ColorScheme-ButtonFocus{
        color:#1E92FF;
      }
</style>
    <style
       id="style3"
       type="text/css">
      .ColorScheme-Text {
        color:#31363b;
      }
      .ColorScheme-Background {
        color:#eff0f1;
      }
      .ColorScheme-Highlight {
        color:#3daee9;
      }
      .ColorScheme-ViewText {
        color:#31363b;
      }
      .ColorScheme-ViewBackground {
        color:#fcfcfc;
      }
      .ColorScheme-ViewHover {
        color:#93cee9;
      }
      .ColorScheme-ViewFocus{
        color:#3daee9;
      }
      .ColorScheme-ButtonText {
        color:#31363b;
      }
      .ColorScheme-ButtonBackground {
        color:#eff0f1;
      }
      .ColorScheme-ButtonHover {
        color:#93cee9;
      }
      .ColorScheme-ButtonFocus{
        color:#3daee9;
      }
      </style>
  </defs>
  <sodipodi:namedview
     id="base"
     pagecolor="#484848"
     bordercolor="#666666"
     borderopacity="1.0"
     inkscape:pageopacity="0"
     inkscape:pageshadow="2"
     inkscape:zoom="1"
     inkscape:cx="-10.231667"
     inkscape:cy="68.513275"
     inkscape:document-units="px"
     inkscape:current-layer="layer1"
     showgrid="false"
     fit-margin-top="0"
     fit-margin-left="0"
     fit-margin-right="0"
     fit-margin-bottom="0"
     inkscape:window-width="1366"
     inkscape:window-height="697"
     inkscape:window-x="0"
     inkscape:window-y="0"
     inkscape:window-maximized="1"
     inkscape:showpageshadow="false"
     showguides="false"
     showborder="false">
    <inkscape:grid
       type="xygrid"
       id="grid4132" />
    <sodipodi:guide
       position="2,20.000017"
       orientation="18,0"
       id="guide4138"
       inkscape:locked="false" />
    <sodipodi:guide
       position="2,2.0000174"
       orientation="0,18"
       id="guide4140"
       inkscape:locked="false" />
    <sodipodi:guide
       position="20,2.0000174"
       orientation="-18,0"
       id="guide4142"
       inkscape:locked="false" />
    <sodipodi:guide
       position="20,20.000017"
       orientation="0,-18"
       id="guide4144"
       inkscape:locked="false" />
    <sodipodi:guide
       position="3,19.000017"
       orientation="16,0"
       id="guide4146"
       inkscape:locked="false" />
    <sodipodi:guide
       position="3,3.0000174"
       orientation="0,16"
       id="guide4148"
       inkscape:locked="false" />
    <sodipodi:guide
       position="19,19.000017"
       orientation="0,-16"
       id="guide4152"
       inkscape:locked="false" />
  </sodipodi:namedview>
  <metadata
     id="metadata3874">
    <rdf:RDF>
      <cc:Work
         rdf:about="">
        <dc:format>image/svg+xml</dc:format>
        <dc:type
           rdf:resource="http://purl.org/dc/dcmitype/StillImage" />
        <dc:title></dc:title>
      </cc:Work>
    </rdf:RDF>
  </metadata>
  <g
     inkscape:label="Capa 1"
     inkscape:groupmode="layer"
     id="layer1"
     transform="translate(-326,-534.3622)">
    <g
       id="quota">
      <path
         id="rect887"
         d="m 326,534.36218 h 22 v 22.00002 h -22 z"
         style="opacity:1;fill:#fefefe;fill-opacity:0;stroke:none;stroke-width:6;stroke-linecap:butt;stroke-linejoin:miter;stroke-miterlimit:4;stroke-dasharray:none;stroke-opacity:1" />
      <path
         sodipodi:nodetypes="sssscccccccsscccccsccccccccccccccc"
         inkscape:connector-curvature="0"
         id="path842"
         transform="translate(326,534.3622)"
         d="M 3.125,3 C 2.504,3 2,3.5116681 2,4.1425781 V 17.857422 C 2,18.488902 2.504,19 3.125,19 H 11 V 17 H 4 V 8 h 14 v 2 h 2 V 6.1582031 C 20,5.5266731 19.496,5 18.875,5 H 10 V 4 H 9 V 3 H 7 Z M 12,11 v 2 h 8 v -2 z m 0,3 v 2 h 8 v -2 z m 0,3 v 2 h 8 v -2 z"
         style="color:#122036;fill:#ffffff;fill-opacity:1;stroke:none;stroke-width:3.77952766" />
    </g>
    <g
       transform="matrix(0.44444444,0,0,0.44444444,338,540.02887)"
       id="22-22-akonadi"
       style="fill:#122036;fill-opacity:1" />
    <g
       transform="translate(22,1e-5)"
       id="quota-missing">
      <path
         inkscape:connector-curvature="0"
         id="rect887-7"
         d="m 326,534.36218 h 22 v 22.00002 h -22 z"
         style="opacity:1;fill:#fefefe;fill-opacity:0;stroke:none;stroke-width:6;stroke-linecap:butt;stroke-linejoin:miter;stroke-miterlimit:4;stroke-dasharray:none;stroke-opacity:1" />
      <path
         style="color:#122036;fill:#ffffff;fill-opacity:1;stroke:none;stroke-width:3.77952766"
         d="M 3.125,3 C 2.504,3 2,3.5116681 2,4.1425781 V 17.857422 C 2,18.488902 2.504,19 3.125,19 H 11 V 17 H 4 V 8 h 14 v 2 h 2 V 6.1582031 C 20,5.5266731 19.496,5 18.875,5 H 10 V 4 H 9 V 3 H 7 Z"
         transform="translate(326,534.3622)"
         id="path925"
         inkscape:connector-curvature="0" />
      <path
         style="color:#122036;fill:#ffffff;fill-opacity:0.3;stroke:none;stroke-width:3.77952766"
         d="m 42,41 v 2 h 8 v -2 z m 0,3 v 2 h 8 v -2 z m 0,3 v 2 h 8 v -2 z"
         transform="translate(296,504.3622)"
         id="path923"
         inkscape:connector-curvature="0" />
    </g>
    <g
       transform="translate(44,10e-6)"
       id="quota-low">
      <path
         inkscape:connector-curvature="0"
         id="rect887-7-1"
         d="m 326,534.36218 h 22 v 22.00002 h -22 z"
         style="opacity:1;fill:#fefefe;fill-opacity:0;stroke:none;stroke-width:6;stroke-linecap:butt;stroke-linejoin:miter;stroke-miterlimit:4;stroke-dasharray:none;stroke-opacity:1" />
      <path
         style="color:#122036;fill:#ffffff;fill-opacity:1;stroke:none;stroke-width:3.77952766"
         d="M 3.125,3 C 2.504,3 2,3.5116681 2,4.1425781 V 17.857422 C 2,18.488902 2.504,19 3.125,19 H 11 V 17 H 4 V 8 h 14 v 2 h 2 V 6.1582031 C 20,5.5266731 19.496,5 18.875,5 H 10 V 4 H 9 V 3 H 7 Z"
         transform="translate(326,534.3622)"
         id="path925-2"
         inkscape:connector-curvature="0" />
      <path
         style="color:#122036;fill:#ffd502;fill-opacity:1;stroke:none;stroke-width:3.77952766"
         d="m 42,41 v 2 h 8 v -2 z m 0,3 v 2 h 8 v -2 z m 0,3 v 2 h 8 v -2 z"
         transform="translate(296,504.3622)"
         id="path923-7"
         inkscape:connector-curvature="0" />
    </g>
    <g
       transform="translate(66,10e-6)"
       id="quota-high">
      <path
         inkscape:connector-curvature="0"
         id="rect887-7-9"
         d="m 326,534.36218 h 22 v 22.00002 h -22 z"
         style="opacity:1;fill:#fefefe;fill-opacity:0;stroke:none;stroke-width:6;stroke-linecap:butt;stroke-linejoin:miter;stroke-miterlimit:4;stroke-dasharray:none;stroke-opacity:1" />
      <path
         style="color:#122036;fill:#ffffff;fill-opacity:1;stroke:none;stroke-width:3.77952766"
         d="M 3.125,3 C 2.504,3 2,3.5116681 2,4.1425781 V 17.857422 C 2,18.488902 2.504,19 3.125,19 H 11 V 17 H 4 V 8 h 14 v 2 h 2 V 6.1582031 C 20,5.5266731 19.496,5 18.875,5 H 10 V 4 H 9 V 3 H 7 Z"
         transform="translate(326,534.3622)"
         id="path925-3"
         inkscape:connector-curvature="0" />
      <path
         style="color:#122036;fill:#ff2851;fill-opacity:1;stroke:none;stroke-width:3.77952766"
         d="m 42,41 v 2 h 8 v -2 z m 0,3 v 2 h 8 v -2 z m 0,3 v 2 h 8 v -2 z"
         transform="translate(296,504.3622)"
         id="path923-6"
         inkscape:connector-curvature="0" />
    </g>
    <g
       transform="translate(88,10e-6)"
       id="quota-critical">
      <path
         inkscape:connector-curvature="0"
         id="rect887-7-2"
         d="m 326,534.36218 h 22 v 22.00002 h -22 z"
         style="opacity:1;fill:#fefefe;fill-opacity:0;stroke:none;stroke-width:6;stroke-linecap:butt;stroke-linejoin:miter;stroke-miterlimit:4;stroke-dasharray:none;stroke-opacity:1" />
      <path
         style="color:#122036;fill:#ff2851;fill-opacity:1;stroke:none;stroke-width:3.77952766"
         d="M 115.125,68 C 114.504,68 114,68.511668 114,69.142578 V 82.857422 C 114,83.488902 114.504,84 115.125,84 H 123 v -2 h -7 v -9 h 14 v 2 h 2 V 71.158203 C 132,70.526673 131.496,70 130.875,70 H 122 v -1 h -1 v -1 h -2 z M 124,76 v 2 h 8 v -2 z m 0,3 v 2 h 8 v -2 z m 0,3 v 2 h 8 v -2 z"
         transform="translate(214,469.36219)"
         id="path925-6"
         inkscape:connector-curvature="0" />
    </g>
  </g>
</svg>
